<svg width="20" height="18" viewBox="0 0 20 18" fill="none" xmlns="http://www.w3.org/2000/svg">
<path fill-rule="evenodd" clip-rule="evenodd" d="M15.101 4.57542V4.57542C14.7635 4.57542 14.4577 4.38089 14.3138 4.07689C14.0541 3.5268 13.7239 2.8238 13.5285 2.44108C13.2399 1.87199 12.7721 1.54085 12.1243 1.53632C12.1134 1.53542 7.88638 1.53542 7.87553 1.53632C7.22772 1.54085 6.76086 1.87199 6.47134 2.44108C6.27681 2.8238 5.94657 3.5268 5.68691 4.07689C5.54305 4.38089 5.23634 4.57542 4.89976 4.57542V4.57542C3.09386 4.57542 1.63086 6.03842 1.63086 7.84342V13.2141C1.63086 15.0182 3.09386 16.4821 4.89976 16.4821H15.101C16.906 16.4821 18.369 15.0182 18.369 13.2141V7.84342C18.369 6.03842 16.906 4.57542 15.101 4.57542Z" stroke="#F7F7FC" stroke-width="1.35714" stroke-linecap="round" stroke-linejoin="round"/>
<path fill-rule="evenodd" clip-rule="evenodd" d="M7.12412 10.2071C7.12321 11.7931 8.41792 13.0906 10.0013 13.0897C11.5819 13.0878 12.873 11.7958 12.8757 10.2134C12.8784 8.62465 11.5882 7.32994 10.0031 7.32813C8.40888 7.32632 7.11145 8.64275 7.12412 10.2071Z" stroke="#F7F7FC" stroke-width="1.35714" stroke-linecap="round" stroke-linejoin="round"/>
<path d="M14.4357 8.09048C14.3483 8.08151 14.262 8.0587 14.1653 8.01978C14.0577 7.972 13.9646 7.91121 13.8745 7.81975C13.7128 7.6477 13.6191 7.42271 13.6191 7.1906C13.6191 7.06731 13.6443 6.94511 13.6936 6.83442C13.7429 6.72227 13.8014 6.62766 13.907 6.52476C13.9874 6.45476 14.0697 6.39843 14.1823 6.34885C14.516 6.2166 14.913 6.29562 15.1612 6.54363C15.2355 6.61689 15.2981 6.70531 15.3329 6.77986L15.3535 6.83273C15.4035 6.94511 15.4287 7.06731 15.4287 7.1906C15.4287 7.42741 15.3362 7.64641 15.1646 7.82872C15.0163 7.97803 14.8215 8.06986 14.6137 8.09048L14.5239 8.09492L14.4357 8.09048Z" fill="#F7F7FC"/>
</svg>
