<svg width="18" height="12" viewBox="0 0 18 12" fill="none" xmlns="http://www.w3.org/2000/svg">
<path fill-rule="evenodd" clip-rule="evenodd" d="M0.666504 1.83342C0.666504 0.912942 1.4127 0.166748 2.33317 0.166748H15.6665C16.587 0.166748 17.3332 0.91294 17.3332 1.83341V2.66675H0.666504V1.83342ZM0.666504 5.16675H17.3332V10.1667C17.3332 11.0872 16.587 11.8334 15.6665 11.8334H2.33317C1.4127 11.8334 0.666504 11.0872 0.666504 10.1667V5.16675ZM13.1665 7.66675C12.7063 7.66675 12.3332 8.03984 12.3332 8.50008C12.3332 8.96032 12.7063 9.33342 13.1665 9.33342H14.8332C15.2934 9.33342 15.6665 8.96032 15.6665 8.50008C15.6665 8.03984 15.2934 7.66675 14.8332 7.66675H13.1665Z" fill="#5F2EEA"/>
</svg>
