<svg width="16" height="16" viewBox="0 0 16 16" fill="none" xmlns="http://www.w3.org/2000/svg">
<path fill-rule="evenodd" clip-rule="evenodd" d="M2.66699 7.99996C2.66699 10.9455 5.05481 13.3333 8.00033 13.3333C10.9458 13.3333 13.3337 10.9455 13.3337 7.99996C13.3337 5.05444 10.9458 2.66663 8.00033 2.66663C5.05481 2.66663 2.66699 5.05444 2.66699 7.99996ZM8.02848 4.7407H7.97841C7.82358 4.7407 7.69486 4.8599 7.68299 5.01427L7.42651 8.3484C7.41561 8.4901 7.50686 8.61959 7.64398 8.65698L10.3811 9.40348C10.4005 9.40877 10.4206 9.41145 10.4407 9.41145C10.5657 9.41145 10.667 9.31013 10.667 9.18514V9.06079C10.667 8.95447 10.61 8.85629 10.5177 8.80354L8.59292 7.70366L8.3233 5.00751C8.30816 4.85605 8.1807 4.7407 8.02848 4.7407Z" fill="white"/>
</svg>
