<svg width="17" height="17" viewBox="0 0 17 17" fill="none" xmlns="http://www.w3.org/2000/svg">
<path fill-rule="evenodd" clip-rule="evenodd" d="M11.0088 12.3243C8.74 12.3243 6.90073 10.485 6.90073 8.2162C6.90073 5.94736 8.74 4.10809 11.0088 4.10809C13.2777 4.10809 15.117 5.94736 15.117 8.2162C15.117 10.485 13.2777 12.3243 11.0088 12.3243ZM10.9921 5.70569H11.0306C11.1479 5.70569 11.2461 5.79454 11.2577 5.91121L11.4654 7.98797L12.948 8.83517C13.0191 8.87581 13.063 8.95143 13.063 9.03333V9.12911C13.063 9.22539 12.985 9.30343 12.8887 9.30343C12.8732 9.30343 12.8578 9.30137 12.8428 9.29729L10.7345 8.72229C10.6289 8.69348 10.5586 8.59375 10.567 8.4846L10.7645 5.91642C10.7737 5.79751 10.8728 5.70569 10.9921 5.70569ZM5.30325 5.021H3.02097C2.64282 5.021 2.33628 5.32755 2.33628 5.70569C2.33628 6.08383 2.64282 6.39037 3.02097 6.39037H5.30325C5.68139 6.39037 5.98793 6.08383 5.98793 5.70569C5.98793 5.32755 5.68139 5.021 5.30325 5.021ZM5.30325 10.4985H3.02097C2.64282 10.4985 2.33628 10.805 2.33628 11.1832C2.33628 11.5613 2.64282 11.8679 3.02097 11.8679H5.30325C5.68139 11.8679 5.98793 11.5613 5.98793 11.1832C5.98793 10.805 5.68139 10.4985 5.30325 10.4985ZM2.10802 7.75973H3.93385C4.31199 7.75973 4.61853 8.06627 4.61853 8.44442C4.61853 8.82256 4.31199 9.1291 3.93385 9.1291H2.10802C1.72988 9.1291 1.42334 8.82256 1.42334 8.44442C1.42334 8.06627 1.72988 7.75973 2.10802 7.75973Z" fill="black"/>
</svg>
