<svg width="11" height="11" viewBox="0 0 11 11" fill="none" xmlns="http://www.w3.org/2000/svg">
<path d="M10.5545 3.89756L4.00177 10.4829C3.66099 10.8146 3.2131 11 2.74574 11H0.457623C0.331047 11 0.214207 10.9512 0.126577 10.8634C0.0389467 10.7756 0 10.6585 0 10.5317L0.05842 8.21951C0.0681567 7.76097 0.253153 7.3317 0.574463 7.00975L5.21885 2.3561C5.29675 2.27805 5.43306 2.27805 5.51095 2.3561L7.1399 3.97853C7.247 4.08488 7.40279 4.15414 7.56831 4.15414C7.92857 4.15414 8.21093 3.86146 8.21093 3.51024C8.21093 3.33463 8.14277 3.17853 8.03567 3.06146C8.00646 3.02244 6.45541 1.47805 6.45541 1.47805C6.35804 1.38049 6.35804 1.21463 6.45541 1.11707L7.10777 0.453658C7.71144 -0.151219 8.68511 -0.151219 9.28878 0.453658L10.5545 1.72195C11.1485 2.31707 11.1485 3.29268 10.5545 3.89756Z" fill="#200E32"/>
</svg>
