<svg width="34" height="34" viewBox="0 0 34 34" fill="none" xmlns="http://www.w3.org/2000/svg">
<path fill-rule="evenodd" clip-rule="evenodd" d="M8.95712 13.4152L16.4786 8.81872C16.7987 8.62309 17.2014 8.62309 17.5215 8.81872L25.0429 13.4152C25.6374 13.7785 26 14.425 26 15.1217V24.0001C26 25.1047 25.1046 26.0001 24 26.0001L10 26.0001C8.89543 26.0001 8 25.1047 8 24.0001L8.00002 15.1217C8.00002 14.425 8.36261 13.7785 8.95712 13.4152ZM15 18.0001C14.4477 18.0001 14 18.4478 14 19.0001V22.0001C14 22.5523 14.4477 23.0001 15 23.0001H19C19.5523 23.0001 20 22.5523 20 22.0001V19.0001C20 18.4478 19.5523 18.0001 19 18.0001H15Z" fill="#5F2EEA"/>
</svg>
