<svg width="13" height="16" viewBox="0 0 13 16" fill="none" xmlns="http://www.w3.org/2000/svg">
<path fill-rule="evenodd" clip-rule="evenodd" d="M0.166504 6.75C0.166504 3 2.6665 0.5 6.4165 0.5C10.1665 0.5 12.6665 3.625 12.6665 6.75C12.6665 8.6938 10.8529 11.3631 7.22566 14.7577C6.76267 15.191 6.04859 15.209 5.56438 14.7996C1.9658 11.7565 0.166504 9.07333 0.166504 6.75ZM6.4165 8C7.5671 8 8.49984 7.06726 8.49984 5.91667C8.49984 4.76607 7.5671 3.83333 6.4165 3.83333C5.26591 3.83333 4.33317 4.76607 4.33317 5.91667C4.33317 7.06726 5.26591 8 6.4165 8Z" fill="#5F2EEA"/>
</svg>
