<svg width="17" height="16" viewBox="0 0 17 16" fill="none" xmlns="http://www.w3.org/2000/svg">
<path fill-rule="evenodd" clip-rule="evenodd" d="M4.61133 7.16667C4.61133 4.66667 6.27799 3 8.778 3C11.278 3 12.9447 5.08333 12.9447 7.16667C12.9447 8.46253 11.7356 10.242 9.31743 12.5052C9.00877 12.794 8.53272 12.806 8.20991 12.5331C5.81086 10.5044 4.61133 8.71556 4.61133 7.16667ZM8.778 8C9.54506 8 10.1669 7.37817 10.1669 6.61111C10.1669 5.84405 9.54506 5.22222 8.778 5.22222C8.01094 5.22222 7.38911 5.84405 7.38911 6.61111C7.38911 7.37817 8.01094 8 8.778 8Z" fill="#FBFBFB"/>
</svg>
