<svg width="16" height="16" viewBox="0 0 16 16" fill="none" xmlns="http://www.w3.org/2000/svg">
<path fill-rule="evenodd" clip-rule="evenodd" d="M8.47641 2.29389L10.0204 5.39989C10.0977 5.55655 10.2471 5.66589 10.4204 5.69122L13.8771 6.19055C14.0171 6.20922 14.1431 6.28255 14.2291 6.39455C14.3904 6.60455 14.3657 6.90189 14.1724 7.08255L11.6671 9.50522C11.5397 9.62522 11.4831 9.80122 11.5164 9.97255L12.1164 13.3912C12.1584 13.6746 11.9651 13.9399 11.6817 13.9859C11.5644 14.0039 11.4444 13.9852 11.3377 13.9326L8.25908 12.3186C8.10441 12.2346 7.91908 12.2346 7.76441 12.3186L4.66308 13.9412C4.40374 14.0732 4.08641 13.9752 3.94508 13.7212C3.89108 13.6186 3.87241 13.5019 3.89108 13.3879L4.49108 9.96922C4.52108 9.79855 4.46441 9.62322 4.34041 9.50255L1.82174 7.08055C1.61641 6.87655 1.61508 6.54455 1.81974 6.33922C1.82041 6.33855 1.82108 6.33722 1.82174 6.33655C1.90641 6.25989 2.01041 6.20855 2.12308 6.18855L5.58041 5.68922C5.75308 5.66189 5.90174 5.55389 5.98041 5.39722L7.52308 2.29389C7.58508 2.16789 7.69508 2.07122 7.82841 2.02722C7.96241 1.98255 8.10908 1.99322 8.23508 2.05655C8.33841 2.10789 8.42308 2.19122 8.47641 2.29389Z" fill="#F4B740" stroke="#F4B740" stroke-width="1.5" stroke-linecap="round" stroke-linejoin="round"/>
</svg>
